<mxfile host="Electron" modified="2023-12-31T10:05:39.907Z" agent="Mozilla/5.0 (X11; Linux x86_64) AppleWebKit/537.36 (KHTML, like Gecko) draw.io/22.0.3 Chrome/114.0.5735.289 Electron/25.8.4 Safari/537.36" etag="SvG1zrJwnfBUSb0z-U-2" version="22.0.3" type="device">
  <diagram name="Seite-1" id="Efmbc3UR1QacCFhaVJZv">
    <mxGraphModel dx="1434" dy="838" grid="1" gridSize="10" guides="1" tooltips="1" connect="1" arrows="1" fold="1" page="1" pageScale="1" pageWidth="827" pageHeight="1169" math="0" shadow="0">
      <root>
        <mxCell id="0" />
        <mxCell id="1" parent="0" />
        <mxCell id="4ohuZapHjUUqi4TGkcU4-4" value="" style="rounded=0;whiteSpace=wrap;html=1;" vertex="1" parent="1">
          <mxGeometry x="770" y="770.25" width="100" height="120" as="geometry" />
        </mxCell>
        <mxCell id="4ohuZapHjUUqi4TGkcU4-1" value="M" style="verticalLabelPosition=middle;shadow=0;dashed=0;align=center;html=1;verticalAlign=middle;strokeWidth=1;shape=ellipse;aspect=fixed;fontSize=35;" vertex="1" parent="1">
          <mxGeometry x="790" y="700" width="60" height="60" as="geometry" />
        </mxCell>
        <mxCell id="4ohuZapHjUUqi4TGkcU4-2" value="" style="shape=mxgraph.signs.tech.rss;html=1;pointerEvents=1;fillColor=#000000;strokeColor=none;verticalLabelPosition=bottom;verticalAlign=top;align=center;" vertex="1" parent="1">
          <mxGeometry x="770" y="790.25" width="98" height="99" as="geometry" />
        </mxCell>
        <mxCell id="4ohuZapHjUUqi4TGkcU4-6" value="NFC" style="text;html=1;strokeColor=none;fillColor=none;align=center;verticalAlign=middle;whiteSpace=wrap;rounded=0;" vertex="1" parent="1">
          <mxGeometry x="790" y="770.25" width="60" height="30" as="geometry" />
        </mxCell>
        <mxCell id="4ohuZapHjUUqi4TGkcU4-7" value="" style="rounded=1;whiteSpace=wrap;html=1;" vertex="1" parent="1">
          <mxGeometry x="40" y="640" width="440" height="540" as="geometry" />
        </mxCell>
        <mxCell id="4ohuZapHjUUqi4TGkcU4-32" style="edgeStyle=orthogonalEdgeStyle;rounded=0;orthogonalLoop=1;jettySize=auto;html=1;" edge="1" parent="1" source="4ohuZapHjUUqi4TGkcU4-8" target="4ohuZapHjUUqi4TGkcU4-27">
          <mxGeometry relative="1" as="geometry">
            <Array as="points">
              <mxPoint x="180" y="1025" />
              <mxPoint x="180" y="1025" />
            </Array>
          </mxGeometry>
        </mxCell>
        <mxCell id="4ohuZapHjUUqi4TGkcU4-33" style="edgeStyle=orthogonalEdgeStyle;rounded=0;orthogonalLoop=1;jettySize=auto;html=1;entryX=1;entryY=0.5;entryDx=0;entryDy=0;startArrow=classic;startFill=1;" edge="1" parent="1" source="4ohuZapHjUUqi4TGkcU4-8" target="4ohuZapHjUUqi4TGkcU4-26">
          <mxGeometry relative="1" as="geometry">
            <Array as="points">
              <mxPoint x="190" y="981" />
              <mxPoint x="190" y="981" />
            </Array>
          </mxGeometry>
        </mxCell>
        <mxCell id="4ohuZapHjUUqi4TGkcU4-34" style="edgeStyle=orthogonalEdgeStyle;rounded=0;orthogonalLoop=1;jettySize=auto;html=1;entryX=1;entryY=0.5;entryDx=0;entryDy=0;startArrow=classic;startFill=1;" edge="1" parent="1" source="4ohuZapHjUUqi4TGkcU4-8" target="4ohuZapHjUUqi4TGkcU4-25">
          <mxGeometry relative="1" as="geometry">
            <Array as="points">
              <mxPoint x="190" y="940" />
              <mxPoint x="190" y="940" />
            </Array>
          </mxGeometry>
        </mxCell>
        <mxCell id="4ohuZapHjUUqi4TGkcU4-38" value="DATA" style="edgeStyle=orthogonalEdgeStyle;rounded=0;orthogonalLoop=1;jettySize=auto;html=1;entryX=0.5;entryY=1;entryDx=0;entryDy=0;startArrow=classic;startFill=1;" edge="1" parent="1" source="4ohuZapHjUUqi4TGkcU4-8" target="4ohuZapHjUUqi4TGkcU4-18">
          <mxGeometry relative="1" as="geometry">
            <Array as="points">
              <mxPoint x="245" y="830" />
              <mxPoint x="360" y="830" />
            </Array>
          </mxGeometry>
        </mxCell>
        <mxCell id="4ohuZapHjUUqi4TGkcU4-39" style="edgeStyle=orthogonalEdgeStyle;rounded=0;orthogonalLoop=1;jettySize=auto;html=1;entryX=0;entryY=0.5;entryDx=0;entryDy=0;startArrow=block;startFill=1;" edge="1" parent="1" source="4ohuZapHjUUqi4TGkcU4-8" target="4ohuZapHjUUqi4TGkcU4-12">
          <mxGeometry relative="1" as="geometry">
            <Array as="points">
              <mxPoint x="370" y="910" />
              <mxPoint x="370" y="830" />
            </Array>
          </mxGeometry>
        </mxCell>
        <mxCell id="4ohuZapHjUUqi4TGkcU4-40" value="DATA+DC" style="edgeLabel;html=1;align=center;verticalAlign=middle;resizable=0;points=[];" vertex="1" connectable="0" parent="4ohuZapHjUUqi4TGkcU4-39">
          <mxGeometry x="-0.0405" y="-4" relative="1" as="geometry">
            <mxPoint as="offset" />
          </mxGeometry>
        </mxCell>
        <mxCell id="4ohuZapHjUUqi4TGkcU4-41" style="edgeStyle=orthogonalEdgeStyle;rounded=0;orthogonalLoop=1;jettySize=auto;html=1;startArrow=block;startFill=1;" edge="1" parent="1" source="4ohuZapHjUUqi4TGkcU4-8" target="4ohuZapHjUUqi4TGkcU4-10">
          <mxGeometry relative="1" as="geometry">
            <Array as="points">
              <mxPoint x="330" y="955" />
              <mxPoint x="330" y="955" />
            </Array>
          </mxGeometry>
        </mxCell>
        <mxCell id="4ohuZapHjUUqi4TGkcU4-42" style="edgeStyle=orthogonalEdgeStyle;rounded=0;orthogonalLoop=1;jettySize=auto;html=1;entryX=0;entryY=0.5;entryDx=0;entryDy=0;startArrow=classic;startFill=1;" edge="1" parent="1" source="4ohuZapHjUUqi4TGkcU4-8" target="4ohuZapHjUUqi4TGkcU4-16">
          <mxGeometry relative="1" as="geometry">
            <Array as="points">
              <mxPoint x="330" y="1025" />
              <mxPoint x="330" y="1025" />
            </Array>
          </mxGeometry>
        </mxCell>
        <mxCell id="4ohuZapHjUUqi4TGkcU4-43" style="edgeStyle=orthogonalEdgeStyle;rounded=0;orthogonalLoop=1;jettySize=auto;html=1;entryX=0;entryY=0.5;entryDx=0;entryDy=0;" edge="1" parent="1" source="4ohuZapHjUUqi4TGkcU4-8" target="4ohuZapHjUUqi4TGkcU4-28">
          <mxGeometry relative="1" as="geometry">
            <Array as="points">
              <mxPoint x="330" y="1100" />
              <mxPoint x="330" y="1100" />
            </Array>
          </mxGeometry>
        </mxCell>
        <mxCell id="4ohuZapHjUUqi4TGkcU4-8" value="Pico" style="rounded=0;whiteSpace=wrap;html=1;" vertex="1" parent="1">
          <mxGeometry x="200" y="900" width="90" height="280" as="geometry" />
        </mxCell>
        <mxCell id="4ohuZapHjUUqi4TGkcU4-36" style="edgeStyle=orthogonalEdgeStyle;rounded=0;orthogonalLoop=1;jettySize=auto;html=1;exitX=0.5;exitY=0;exitDx=0;exitDy=0;" edge="1" parent="1" source="4ohuZapHjUUqi4TGkcU4-9">
          <mxGeometry relative="1" as="geometry">
            <mxPoint x="200" y="1070" as="targetPoint" />
            <Array as="points">
              <mxPoint x="120" y="1070" />
              <mxPoint x="200" y="1070" />
            </Array>
          </mxGeometry>
        </mxCell>
        <mxCell id="4ohuZapHjUUqi4TGkcU4-37" style="edgeStyle=orthogonalEdgeStyle;rounded=0;orthogonalLoop=1;jettySize=auto;html=1;entryX=0;entryY=0.5;entryDx=0;entryDy=0;" edge="1" parent="1" source="4ohuZapHjUUqi4TGkcU4-9" target="4ohuZapHjUUqi4TGkcU4-18">
          <mxGeometry relative="1" as="geometry">
            <Array as="points">
              <mxPoint x="120" y="1090" />
              <mxPoint x="70" y="1090" />
              <mxPoint x="70" y="730" />
            </Array>
          </mxGeometry>
        </mxCell>
        <mxCell id="4ohuZapHjUUqi4TGkcU4-9" value="DC IN" style="rounded=0;whiteSpace=wrap;html=1;" vertex="1" parent="1">
          <mxGeometry x="100" y="1120" width="40" height="60" as="geometry" />
        </mxCell>
        <mxCell id="4ohuZapHjUUqi4TGkcU4-19" style="edgeStyle=orthogonalEdgeStyle;rounded=0;orthogonalLoop=1;jettySize=auto;html=1;entryX=0;entryY=0.5;entryDx=0;entryDy=0;" edge="1" parent="1" source="4ohuZapHjUUqi4TGkcU4-10" target="4ohuZapHjUUqi4TGkcU4-14">
          <mxGeometry relative="1" as="geometry" />
        </mxCell>
        <mxCell id="4ohuZapHjUUqi4TGkcU4-22" value="IO+GND" style="edgeLabel;html=1;align=center;verticalAlign=middle;resizable=0;points=[];" vertex="1" connectable="0" parent="4ohuZapHjUUqi4TGkcU4-19">
          <mxGeometry x="0.0271" relative="1" as="geometry">
            <mxPoint as="offset" />
          </mxGeometry>
        </mxCell>
        <mxCell id="4ohuZapHjUUqi4TGkcU4-10" value="2pin" style="rounded=0;whiteSpace=wrap;html=1;" vertex="1" parent="1">
          <mxGeometry x="450" y="925.25" width="50" height="60" as="geometry" />
        </mxCell>
        <mxCell id="4ohuZapHjUUqi4TGkcU4-12" value="" style="rounded=0;whiteSpace=wrap;html=1;" vertex="1" parent="1">
          <mxGeometry x="450" y="780" width="50" height="100.5" as="geometry" />
        </mxCell>
        <mxCell id="4ohuZapHjUUqi4TGkcU4-14" value="Endstop Sensor" style="rounded=0;whiteSpace=wrap;html=1;" vertex="1" parent="1">
          <mxGeometry x="776.5" y="940" width="85" height="30.5" as="geometry" />
        </mxCell>
        <mxCell id="4ohuZapHjUUqi4TGkcU4-15" value="Endstop Sensor" style="rounded=0;whiteSpace=wrap;html=1;" vertex="1" parent="1">
          <mxGeometry x="777.5" y="1010" width="85" height="30.5" as="geometry" />
        </mxCell>
        <mxCell id="4ohuZapHjUUqi4TGkcU4-20" value="IO + GND" style="edgeStyle=orthogonalEdgeStyle;rounded=0;orthogonalLoop=1;jettySize=auto;html=1;" edge="1" parent="1" source="4ohuZapHjUUqi4TGkcU4-16" target="4ohuZapHjUUqi4TGkcU4-15">
          <mxGeometry relative="1" as="geometry" />
        </mxCell>
        <mxCell id="4ohuZapHjUUqi4TGkcU4-16" value="2pin" style="rounded=0;whiteSpace=wrap;html=1;" vertex="1" parent="1">
          <mxGeometry x="450" y="995.25" width="50" height="60" as="geometry" />
        </mxCell>
        <mxCell id="4ohuZapHjUUqi4TGkcU4-23" style="edgeStyle=orthogonalEdgeStyle;rounded=0;orthogonalLoop=1;jettySize=auto;html=1;entryX=0;entryY=0.5;entryDx=0;entryDy=0;" edge="1" parent="1" source="4ohuZapHjUUqi4TGkcU4-17" target="4ohuZapHjUUqi4TGkcU4-1">
          <mxGeometry relative="1" as="geometry" />
        </mxCell>
        <mxCell id="4ohuZapHjUUqi4TGkcU4-24" value="DC+GND" style="edgeLabel;html=1;align=center;verticalAlign=middle;resizable=0;points=[];" vertex="1" connectable="0" parent="4ohuZapHjUUqi4TGkcU4-23">
          <mxGeometry x="0.0981" relative="1" as="geometry">
            <mxPoint x="1" as="offset" />
          </mxGeometry>
        </mxCell>
        <mxCell id="4ohuZapHjUUqi4TGkcU4-17" value="2pin" style="rounded=0;whiteSpace=wrap;html=1;" vertex="1" parent="1">
          <mxGeometry x="450" y="699.5" width="50" height="60" as="geometry" />
        </mxCell>
        <mxCell id="4ohuZapHjUUqi4TGkcU4-18" value="Motor Control&lt;br&gt;+&lt;br&gt;Current sense" style="whiteSpace=wrap;html=1;aspect=fixed;" vertex="1" parent="1">
          <mxGeometry x="320" y="690" width="80" height="80" as="geometry" />
        </mxCell>
        <mxCell id="4ohuZapHjUUqi4TGkcU4-25" value="Button" style="rounded=0;whiteSpace=wrap;html=1;" vertex="1" parent="1">
          <mxGeometry x="105" y="925.25" width="45" height="29" as="geometry" />
        </mxCell>
        <mxCell id="4ohuZapHjUUqi4TGkcU4-26" value="SMD Switch" style="rounded=0;whiteSpace=wrap;html=1;" vertex="1" parent="1">
          <mxGeometry x="105" y="966.25" width="45" height="29" as="geometry" />
        </mxCell>
        <mxCell id="4ohuZapHjUUqi4TGkcU4-27" value="LED" style="rounded=0;whiteSpace=wrap;html=1;" vertex="1" parent="1">
          <mxGeometry x="105" y="1010" width="45" height="29" as="geometry" />
        </mxCell>
        <mxCell id="4ohuZapHjUUqi4TGkcU4-30" style="edgeStyle=orthogonalEdgeStyle;rounded=0;orthogonalLoop=1;jettySize=auto;html=1;" edge="1" parent="1" source="4ohuZapHjUUqi4TGkcU4-28" target="4ohuZapHjUUqi4TGkcU4-29">
          <mxGeometry relative="1" as="geometry" />
        </mxCell>
        <mxCell id="4ohuZapHjUUqi4TGkcU4-31" value="IO+GND" style="edgeLabel;html=1;align=center;verticalAlign=middle;resizable=0;points=[];" vertex="1" connectable="0" parent="4ohuZapHjUUqi4TGkcU4-30">
          <mxGeometry x="0.1025" y="1" relative="1" as="geometry">
            <mxPoint as="offset" />
          </mxGeometry>
        </mxCell>
        <mxCell id="4ohuZapHjUUqi4TGkcU4-28" value="2pin" style="rounded=0;whiteSpace=wrap;html=1;" vertex="1" parent="1">
          <mxGeometry x="450" y="1070" width="50" height="60" as="geometry" />
        </mxCell>
        <mxCell id="4ohuZapHjUUqi4TGkcU4-29" value="LED" style="rounded=0;whiteSpace=wrap;html=1;" vertex="1" parent="1">
          <mxGeometry x="797.5" y="1085.5" width="45" height="29" as="geometry" />
        </mxCell>
        <mxCell id="4ohuZapHjUUqi4TGkcU4-35" style="edgeStyle=orthogonalEdgeStyle;rounded=0;orthogonalLoop=1;jettySize=auto;html=1;exitX=0.5;exitY=1;exitDx=0;exitDy=0;" edge="1" parent="1" source="4ohuZapHjUUqi4TGkcU4-9" target="4ohuZapHjUUqi4TGkcU4-9">
          <mxGeometry relative="1" as="geometry" />
        </mxCell>
      </root>
    </mxGraphModel>
  </diagram>
</mxfile>
